# xmcd CD database file
#
# Track frame offsets:
#	150
#	22027
#	41737
#	62290
#	79055
#	96187
#	111897
#	131475
#	150890
#	167340
#	184345
#	201562
#	218990
#	234600
#	264432
#
# Disc length: 3576 seconds
#
# Revision: 0
# Processed by: cddbd v1.5.1PL0 Copyright (c) Steve Scherf et al.
# Submitted via: CDex 1.51
#
DISCID=c80df60f
DTITLE=東方神起 - TRI-ANGLE
DYEAR=2004
DGENRE=Pop
TTITLE0=I believe...
TTITLE1=Thanks to
TTITLE2=TRI-ANGLE (Perfomed by 東方神起, BoA and The TRAX) -Extended version
TTITLE3=A Heartbeat Away
TTITLE4=Whatever they say (Accapella version)
TTITLE5=Million men
TTITLE6=Always
TTITLE7=I never let go
TTITLE8=Kid
TTITLE9=My Girl
TTITLE10=HUG
TTITLE11=My little princess
TTITLE12=The way U are
TTITLE13=TRI-ANGLE (東方神起 version）
TTITLE14=(data track)
EXTD=YEAR: 2004/11/25
EXTT0=
EXTT1=
EXTT2=
EXTT3=
EXTT4=
EXTT5=
EXTT6=
EXTT7=
EXTT8=
EXTT9=
EXTT10=
EXTT11=
EXTT12=
EXTT13=
EXTT14=
PLAYORDER=
